<svg xmlns="http://www.w3.org/2000/svg" width="20.87" height="31.847" viewBox="0 0 20.87 31.847"><defs><style>.a{fill:#fff;stroke:#fff;}</style></defs><g transform="translate(-83.628 0.5)"><path class="a" d="M102.045,0H86.081a1.955,1.955,0,0,0-1.953,1.953V28.894a1.955,1.955,0,0,0,1.953,1.953h15.964A1.955,1.955,0,0,0,104,28.894V1.953A1.955,1.955,0,0,0,102.045,0ZM85.107,4.909h17.913v20.4H85.107Zm.974-3.93h15.964a.975.975,0,0,1,.974.974v2.3H85.107v-2.3A.975.975,0,0,1,86.081.979Zm15.964,28.89H86.081a.975.975,0,0,1-.974-.974V25.961h17.913v2.933A.975.975,0,0,1,102.045,29.869Z" transform="translate(0)"/><path class="a" d="M213.445,404.552a1.6,1.6,0,1,0,1.6,1.6A1.6,1.6,0,0,0,213.445,404.552Zm0,2.553a.95.95,0,1,1,.95-.95A.951.951,0,0,1,213.445,407.1Z" transform="translate(-119.382 -378.158)"/><path class="a" d="M197.732,38.3h4.436a.326.326,0,0,0,0-.652h-4.436a.326.326,0,0,0,0,.652Z" transform="translate(-105.888 -35.189)"/><path class="a" d="M179.735,38.3a.325.325,0,1,0-.231-.1A.328.328,0,0,0,179.735,38.3Z" transform="translate(-89.065 -35.189)"/></g></svg>